<?xml version="1.0"?>
<svg xmlns="http://www.w3.org/2000/svg" xmlns:xlink="http://www.w3.org/1999/xlink" xmlns:svgjs="http://svgjs.com/svgjs" version="1.1" width="512" height="512" x="0" y="0" viewBox="0 0 496 496" style="enable-background:new 0 0 512 512" xml:space="preserve" class=""><g><path xmlns="http://www.w3.org/2000/svg" d="m176 319.898438h80c4.417969 0 8-3.582032 8-8v-80c0-4.417969-3.582031-8-8-8h-80c-4.417969 0-8 3.582031-8 8v80c0 4.417968 3.582031 8 8 8zm8-16v-24h24v24zm64 0h-24v-24h24zm0-64v24h-24v-24zm-64 0h24v24h-24zm0 0" fill="#ffffff" data-original="#000000" style="" class=""/><path xmlns="http://www.w3.org/2000/svg" d="m496 196.320312v-88.847656c-.039062-37.304687-30.269531-67.535156-67.574219-67.574218h-8.851562c-37.304688.039062-67.535157 30.269531-67.574219 67.574218v88.847656c.058594 35.910157 28.179688 65.507813 64.039062 67.402344-.015624.054688-.03125.117188-.039062.175782v96h-128v-184h24c3.195312-.003907 6.082031-1.90625 7.34375-4.84375s.65625-6.34375-1.542969-8.660157l-152-160c-3.207031-3.191406-8.394531-3.191406-11.601562 0l-152 160c-2.199219 2.316407-2.804688 5.722657-1.542969 8.660157s4.148438 4.839843 7.34375 4.84375h24v184h-24c-4.417969 0-8 3.582031-8 8 0 4.417968 3.582031 8 8 8h480c4.417969 0 8-3.582032 8-8 0-4.417969-3.582031-8-8-8h-56v-96c.003906-.058594.003906-.117188 0-.175782 35.84375-1.917968 63.941406-31.507812 64-67.402344zm-336-176.796874 133.367188 140.375h-266.734376zm-112 156.375h224v184h-120v-136c0-4.417969-3.582031-8-8-8h-80c-4.417969 0-8 3.582031-8 8v136h-8zm88 184h-64v-128h64zm292.425781-112h-8.851562c-28.46875-.035157-51.539063-23.105469-51.574219-51.578126v-88.847656c.035156-28.46875 23.105469-51.539062 51.574219-51.574218h8.851562c28.46875.035156 51.539063 23.105468 51.574219 51.574218v88.847656c-.035156 28.472657-23.105469 51.542969-51.574219 51.578126zm0 0" fill="#ffffff" data-original="#000000" style="" class=""/></g></svg>
