<svg id="Icon_Set" height="512" viewBox="0 0 256 256" width="512" xmlns="http://www.w3.org/2000/svg"><g><g><g><g><path d="m183.202 80.002c3.054 0 6.137.92 8.81 2.832l45.894 32.831c3.98 2.847 6.341 7.439 6.341 12.333 0 4.893-2.361 9.486-6.341 12.333l-45.894 32.831c-6.811 4.874-16.283 3.301-21.155-3.51-4.873-6.811-3.301-16.283 3.51-21.155l28.653-20.498-28.654-20.499c-6.812-4.872-8.383-14.344-3.51-21.155 2.96-4.139 7.618-6.343 12.346-6.343z" fill="#3193f3"/></g><path d="m29.492 145.726h62.559l-3.872 2.77c-6.812 4.872-8.383 14.344-3.51 21.155s14.345 8.384 21.156 3.51l45.893-32.831c3.98-2.847 6.341-7.439 6.341-12.333 0-4.893-2.361-9.486-6.341-12.333l-45.893-32.831c-2.673-1.913-5.756-2.832-8.81-2.832-4.728 0-9.386 2.204-12.346 6.343-4.873 6.811-3.301 16.283 3.51 21.155l3.872 2.77h-62.56c-9.791 0-17.728 7.937-17.728 17.728s7.938 17.729 17.729 17.729z" fill="#3193f3"/></g><g><g><path d="m177.015 82.838c-.43-.31-.87-.59-1.32-.85 2.3-1.31 4.89-1.99 7.51-1.99 3.05 0 6.13.92 8.81 2.84l45.89 32.83c3.98 2.84 6.34 7.44 6.34 12.33s-2.36 9.49-6.34 12.33l-45.89 32.83c-4.96 3.56-11.35 3.68-16.33.85.45-.26.9-.54 1.33-.85l45.89-32.83c3.98-2.84 6.34-7.44 6.34-12.33s-2.36-9.49-6.34-12.33z" fill="#307fed"/></g><path d="m89.495 81.988c2.3-1.31 4.9-1.99 7.52-1.99 3.05 0 6.14.92 8.81 2.84l45.89 32.83c3.98 2.84 6.34 7.44 6.34 12.33s-2.36 9.49-6.34 12.33l-45.89 32.83c-4.96 3.56-11.34 3.68-16.32.85.45-.26.89-.54 1.32-.85l45.89-32.83c3.98-2.84 6.34-7.44 6.34-12.33s-2.36-9.49-6.34-12.33l-45.89-32.83c-.43-.31-.88-.59-1.33-.85z" fill="#307fed"/></g><g><path d="m11.765 127.998c0-9.79 7.94-17.73 17.73-17.73h15c-9.79 0-17.73 7.94-17.73 17.73s7.94 17.73 17.73 17.73h-15c-9.79 0-17.73-7.94-17.73-17.73z" fill="#35b1fc"/></g></g><g fill="#5f266d"><path d="m240.232 112.412-45.893-32.831c-8.661-6.195-20.62-4.112-26.737 4.437-6.147 8.595-4.156 20.588 4.438 26.736l24.105 17.245-24.105 17.244c-8.595 6.148-10.585 18.142-4.437 26.737 6.188 8.648 18.156 10.575 26.736 4.436l45.893-32.831c10.67-7.632 10.674-23.54 0-31.173zm-4.655 24.665-45.894 32.832c-5.019 3.591-11.984 2.434-15.575-2.584-3.581-5.007-2.422-11.994 2.585-15.575l28.653-20.498c2.229-1.594 2.228-4.913 0-6.507l-28.653-20.498c-5.007-3.581-6.166-10.568-2.585-15.575 3.55-4.961 10.511-6.208 15.576-2.584l45.893 32.831c6.216 4.444 6.219 13.711 0 18.158z"/><path d="m154.045 112.412-45.893-32.831c-8.662-6.198-20.625-4.108-26.737 4.436-4.876 6.817-4.632 15.772-.035 22.253h-51.888c-11.981 0-21.728 9.747-21.728 21.728s9.747 21.728 21.728 21.728h51.878c-4.506 6.333-4.937 15.287.046 22.253 6.174 8.63 18.139 10.588 26.736 4.436l45.894-32.831c10.67-7.631 10.674-23.539-.001-31.172zm-4.654 24.665-45.894 32.832c-5.016 3.589-11.984 2.435-15.575-2.584-3.59-5.017-2.435-11.985 2.584-15.575l3.872-2.77c3.152-2.255 1.554-7.253-2.327-7.253h-62.559c-7.57 0-13.728-6.158-13.728-13.728s6.158-13.728 13.728-13.728h62.56c3.876 0 5.483-4.995 2.327-7.253l-3.872-2.77c-5.007-3.582-6.166-10.568-2.584-15.575 3.543-4.953 10.505-6.212 15.575-2.584l45.894 32.831c6.215 4.443 6.218 13.71-.001 18.157z"/><path d="m47.005 123.998h-20c-2.209 0-4 1.791-4 4s1.791 4 4 4h20c2.209 0 4-1.791 4-4s-1.791-4-4-4z"/><path d="m66.464 123.998h-4.459c-2.209 0-4 1.791-4 4s1.791 4 4 4h4.459c2.209 0 4-1.791 4-4s-1.791-4-4-4z"/></g></g></svg>