<svg width="176" height="63" viewBox="0 0 176 63" fill="none" xmlns="http://www.w3.org/2000/svg">
<g clip-path="url(#clip0)">
<path d="M0 40.4364L88 0.950012L176 40.4364H166.222L88 6.59092L9.77778 40.4364H0Z" fill="#002156"/>
<path d="M13.7812 52.0724H9.46777V55.5997H14.4785V56.673H8.15527V46.7198H14.4102V47.7999H9.46777V50.9991H13.7812V52.0724ZM23.4336 53.5148C23.3105 54.5675 22.9209 55.381 22.2646 55.9552C21.613 56.5248 20.7448 56.8097 19.6602 56.8097C18.4844 56.8097 17.541 56.3881 16.8301 55.545C16.1237 54.7019 15.7705 53.574 15.7705 52.1612V51.2042C15.7705 50.2791 15.9346 49.4656 16.2627 48.7638C16.5954 48.062 17.0648 47.5242 17.6709 47.1505C18.277 46.7722 18.9788 46.5831 19.7764 46.5831C20.8337 46.5831 21.6813 46.8793 22.3193 47.4718C22.9574 48.0597 23.3288 48.8754 23.4336 49.9191H22.1143C22.0003 49.1261 21.752 48.5519 21.3691 48.1964C20.9909 47.8409 20.46 47.6632 19.7764 47.6632C18.9378 47.6632 18.2793 47.9731 17.8008 48.5929C17.3268 49.2127 17.0898 50.0945 17.0898 51.2384V52.2023C17.0898 53.2823 17.3154 54.1414 17.7666 54.7794C18.2178 55.4174 18.849 55.7364 19.6602 55.7364C20.3893 55.7364 20.9476 55.5724 21.335 55.2442C21.7269 54.9116 21.9867 54.3351 22.1143 53.5148H23.4336ZM32.8877 52.0177C32.8877 52.9929 32.7236 53.8452 32.3955 54.5743C32.0674 55.2989 31.6025 55.8526 31.001 56.2355C30.3994 56.6183 29.6976 56.8097 28.8955 56.8097C28.1117 56.8097 27.4167 56.6183 26.8105 56.2355C26.2044 55.8481 25.7327 55.2989 25.3955 54.588C25.0628 53.8725 24.8919 53.0454 24.8828 52.1066V51.3888C24.8828 50.4317 25.0492 49.5864 25.3818 48.8526C25.7145 48.1189 26.1839 47.5584 26.79 47.171C27.4007 46.7791 28.098 46.5831 28.8818 46.5831C29.6794 46.5831 30.3812 46.7768 30.9873 47.1642C31.598 47.547 32.0674 48.1053 32.3955 48.839C32.7236 49.5681 32.8877 50.4181 32.8877 51.3888V52.0177ZM31.582 51.3751C31.582 50.1948 31.3451 49.2901 30.8711 48.6612C30.3971 48.0278 29.734 47.711 28.8818 47.711C28.0524 47.711 27.3984 48.0278 26.9199 48.6612C26.446 49.2901 26.2021 50.1651 26.1885 51.2862V52.0177C26.1885 53.1616 26.4277 54.0616 26.9062 54.7179C27.3893 55.3696 28.0524 55.6954 28.8955 55.6954C29.7432 55.6954 30.3994 55.3878 30.8643 54.7726C31.3291 54.1528 31.5684 53.2664 31.582 52.1134V51.3751ZM36.5518 46.7198L39.8057 54.8409L43.0596 46.7198H44.7617V56.673H43.4492V52.797L43.5723 48.6134L40.3047 56.673H39.2998L36.0391 48.6339L36.1689 52.797V56.673H34.8564V46.7198H36.5518ZM52.6982 54.0753H48.5283L47.5918 56.673H46.2383L50.0391 46.7198H51.1875L54.9951 56.673H53.6484L52.6982 54.0753ZM48.9248 52.9952H52.3086L50.6133 48.34L48.9248 52.9952Z" fill="white"/>
<path d="M122.781 52.0724H118.468V55.5997H123.479V56.673H117.155V46.7198H123.41V47.7999H118.468V50.9991H122.781V52.0724ZM128.359 50.5343L130.745 46.7198H132.29L129.146 51.6554L132.365 56.673H130.807L128.359 52.7901L125.898 56.673H124.347L127.573 51.6554L124.422 46.7198H125.96L128.359 50.5343ZM135.202 52.7765V56.673H133.89V46.7198H137.561C138.65 46.7198 139.502 46.9978 140.117 47.5538C140.737 48.1098 141.047 48.8458 141.047 49.7618C141.047 50.728 140.744 51.4731 140.138 51.9972C139.536 52.5167 138.673 52.7765 137.547 52.7765H135.202ZM135.202 51.7032H137.561C138.262 51.7032 138.8 51.5392 139.174 51.211C139.548 50.8784 139.734 50.3998 139.734 49.7755C139.734 49.183 139.548 48.7091 139.174 48.3536C138.8 47.9982 138.287 47.8136 137.636 47.7999H135.202V51.7032ZM148.348 52.0724H144.034V55.5997H149.045V56.673H142.722V46.7198H148.977V47.7999H144.034V50.9991H148.348V52.0724ZM154.329 52.6466H151.991V56.673H150.672V46.7198H153.967C155.088 46.7198 155.949 46.975 156.551 47.4855C157.157 47.9959 157.46 48.7387 157.46 49.714C157.46 50.3338 157.291 50.8738 156.954 51.3341C156.621 51.7944 156.157 52.1385 155.56 52.3663L157.897 56.5909V56.673H156.489L154.329 52.6466ZM151.991 51.5733H154.008C154.66 51.5733 155.177 51.4047 155.56 51.0675C155.947 50.7303 156.141 50.2791 156.141 49.714C156.141 49.0987 155.956 48.6271 155.587 48.2989C155.222 47.9708 154.694 47.8045 154.001 47.7999H151.991V51.5733ZM165.636 47.7999H162.437V56.673H161.131V47.7999H157.938V46.7198H165.636V47.7999Z" fill="white"/>
<path d="M112.587 32.1353H60V59.9944H112.587V32.1353Z" fill="white"/>
<path d="M77.735 52.2367V56.1332H76.4225V46.1801H80.0934C81.1826 46.1801 82.0348 46.4581 82.65 47.0141C83.2698 47.5701 83.5797 48.3061 83.5797 49.2221C83.5797 50.1882 83.2767 50.9333 82.6705 51.4574C82.069 51.977 81.2054 52.2367 80.0797 52.2367H77.735ZM77.735 51.1635H80.0934C80.7952 51.1635 81.333 50.9994 81.7067 50.6713C82.0804 50.3386 82.2672 49.8601 82.2672 49.2357C82.2672 48.6433 82.0804 48.1693 81.7067 47.8139C81.333 47.4584 80.8203 47.2738 80.1686 47.2602H77.735V51.1635ZM88.9049 52.1068H86.567V56.1332H85.2477V46.1801H88.5426C89.6637 46.1801 90.525 46.4353 91.1266 46.9457C91.7327 47.4561 92.0358 48.199 92.0358 49.1742C92.0358 49.794 91.8671 50.3341 91.5299 50.7943C91.1972 51.2546 90.7324 51.5987 90.1354 51.8266L92.4733 56.0512V56.1332H91.0651L88.9049 52.1068ZM86.567 51.0336H88.5836C89.2353 51.0336 89.7526 50.865 90.1354 50.5277C90.5227 50.1905 90.7164 49.7393 90.7164 49.1742C90.7164 48.559 90.5319 48.0873 90.1627 47.7592C89.7981 47.4311 89.2695 47.2647 88.5768 47.2602H86.567V51.0336ZM101.538 51.4779C101.538 52.4532 101.374 53.3054 101.046 54.0346C100.717 54.7592 100.253 55.3129 99.651 55.6957C99.0494 56.0785 98.3476 56.2699 97.5455 56.2699C96.7617 56.2699 96.0667 56.0785 95.4606 55.6957C94.8545 55.3083 94.3828 54.7592 94.0455 54.0482C93.7128 53.3328 93.542 52.5056 93.5328 51.5668V50.849C93.5328 49.892 93.6992 49.0466 94.0319 48.3129C94.3645 47.5792 94.8339 47.0186 95.4401 46.6313C96.0507 46.2393 96.748 46.0434 97.5319 46.0434C98.3294 46.0434 99.0312 46.2371 99.6373 46.6244C100.248 47.0072 100.717 47.5655 101.046 48.2992C101.374 49.0284 101.538 49.8783 101.538 50.849V51.4779ZM100.232 50.8354C100.232 49.655 99.9951 48.7504 99.5211 48.1215C99.0472 47.488 98.3841 47.1713 97.5319 47.1713C96.7024 47.1713 96.0485 47.488 95.5699 48.1215C95.096 48.7504 94.8522 49.6254 94.8385 50.7465V51.4779C94.8385 52.6218 95.0778 53.5219 95.5563 54.1781C96.0393 54.8298 96.7024 55.1557 97.5455 55.1557C98.3932 55.1557 99.0494 54.8481 99.5143 54.2328C99.9791 53.613 100.218 52.7266 100.232 51.5736V50.8354Z" fill="#DB4513"/>
</g>
<defs>
<clipPath id="clip0">
<rect width="176" height="62.05" fill="white" transform="translate(0 0.950012)"/>
</clipPath>
</defs>
</svg>
